<svg xmlns="http://www.w3.org/2000/svg" xmlns:xlink="http://www.w3.org/1999/xlink" width="655" height="679" viewBox="0 0 655 679">
  <defs>
    <filter id="Rectangle_6" x="0" y="0" width="655" height="679" filterUnits="userSpaceOnUse">
      <feOffset dx="4" dy="-1" input="SourceAlpha"/>
      <feGaussianBlur stdDeviation="25" result="blur"/>
      <feFlood flood-opacity="0.161"/>
      <feComposite operator="in" in2="blur"/>
      <feComposite in="SourceGraphic"/>
    </filter>
  </defs>
  <g id="Component_21_1" data-name="Component 21 – 1" transform="translate(71 76)">
    <g transform="matrix(1, 0, 0, 1, -71, -76)" filter="url(#Rectangle_6)">
      <rect id="Rectangle_6-2" data-name="Rectangle 6" width="505" height="529" rx="41" transform="translate(71 76)" fill="#fdfafa"/>
    </g>
    <g id="Group_2" data-name="Group 2" transform="translate(11.838 102.595)">
      <g id="Component_7_1" data-name="Component 7 – 1" transform="translate(0.162 0.405)">
        <ellipse id="Ellipse_1" data-name="Ellipse 1" cx="43.5" cy="42.5" rx="43.5" ry="42.5" fill="#1bf613"/>
        <path id="Path_4" data-name="Path 4" d="M1174.285,426.955l11.245,12.829,37.2-28.4" transform="translate(-1155.521 -383.106)" fill="none" stroke="#fff" stroke-width="4"/>
      </g>
      <g id="Component_8_1" data-name="Component 8 – 1" transform="translate(122.162 17.405)">
        <rect id="Rectangle_7" data-name="Rectangle 7" width="361" height="18" rx="9" fill="rgba(226,168,255,0.55)"/>
        <rect id="Rectangle_8" data-name="Rectangle 8" width="99" height="17" rx="8.5" transform="translate(0 30)" fill="rgba(226,168,255,0.55)"/>
        <rect id="Rectangle_9" data-name="Rectangle 9" width="18" height="17" rx="8.5" transform="translate(343 30)" fill="rgba(226,168,255,0.55)"/>
        <rect id="Rectangle_10" data-name="Rectangle 10" width="15" height="17" rx="7.5" transform="translate(320 30)" fill="rgba(226,168,255,0.55)"/>
      </g>
    </g>
    <g id="Group_3" data-name="Group 3" transform="translate(11.838 207.162)">
      <g id="Component_7_1-2" data-name="Component 7 – 1" transform="translate(0.162 -0.162)">
        <g id="Ellipse_1-2" data-name="Ellipse 1" transform="translate(0 0)" fill="#fff" stroke="#b0aeae" stroke-width="2">
          <ellipse cx="43.5" cy="42.5" rx="43.5" ry="42.5" stroke="none"/>
          <ellipse cx="43.5" cy="42.5" rx="42.5" ry="41.5" fill="none"/>
        </g>
      </g>
      <g id="Component_8_1-2" data-name="Component 8 – 1" transform="translate(122.162 17.838)">
        <rect id="Rectangle_7-2" data-name="Rectangle 7" width="361" height="18" rx="9" transform="translate(0 0)" fill="rgba(168,255,177,0.55)"/>
        <rect id="Rectangle_8-2" data-name="Rectangle 8" width="99" height="17" rx="8.5" transform="translate(0 30)" fill="rgba(168,255,177,0.55)"/>
        <rect id="Rectangle_9-2" data-name="Rectangle 9" width="18" height="17" rx="8.5" transform="translate(343 30)" fill="rgba(168,255,177,0.55)"/>
        <rect id="Rectangle_10-2" data-name="Rectangle 10" width="15" height="17" rx="7.5" transform="translate(320 30)" fill="rgba(168,255,177,0.55)"/>
      </g>
    </g>
    <g id="Group_4" data-name="Group 4" transform="translate(11.838 311.73)">
      <g id="Component_7_1-3" data-name="Component 7 – 1" transform="translate(0.162 0.27)">
        <g id="Ellipse_1-3" data-name="Ellipse 1" transform="translate(0 0)" fill="#fff" stroke="#b0aeae" stroke-width="2">
          <ellipse cx="43.5" cy="42.5" rx="43.5" ry="42.5" stroke="none"/>
          <ellipse cx="43.5" cy="42.5" rx="42.5" ry="41.5" fill="none"/>
        </g>
      </g>
      <g id="Component_8_1-3" data-name="Component 8 – 1" transform="translate(122.162 17.27)">
        <rect id="Rectangle_7-3" data-name="Rectangle 7" width="361" height="18" rx="9" transform="translate(0 0)" fill="rgba(250,234,87,0.55)"/>
        <rect id="Rectangle_8-3" data-name="Rectangle 8" width="99" height="17" rx="8.5" transform="translate(0 30)" fill="rgba(250,234,87,0.55)"/>
        <rect id="Rectangle_9-3" data-name="Rectangle 9" width="18" height="17" rx="8.5" transform="translate(343 30)" fill="rgba(250,234,87,0.55)"/>
        <rect id="Rectangle_10-3" data-name="Rectangle 10" width="15" height="17" rx="7.5" transform="translate(320 30)" fill="rgba(250,234,87,0.55)"/>
      </g>
    </g>
  </g>
</svg>
